<svg xmlns="http://www.w3.org/2000/svg" viewBox="0 0 720 720" role="img" aria-labelledby="t d"><title id="t">Garden City Property Care</title><desc id="d">Green circular property care logo with a house, tree, grass and leaf.</desc><defs><linearGradient id="g" x1="0" y1="0" x2="1" y2="1"><stop stop-color="#0d6b3f"/><stop offset="1" stop-color="#57a82a"/></linearGradient></defs><rect width="720" height="720" rx="80" fill="#fff"/><circle cx="360" cy="310" r="230" fill="none" stroke="url(#g)" stroke-width="18"/><path d="M150 410c70 35 142 54 218 55 80 1 151-15 214-48-44 88-128 140-225 140-95 0-171-48-207-147z" fill="#2f7d23"/><path d="M190 400c36-20 78-35 122-42 67-10 139 2 206 34-64 19-124 29-181 29-52 0-101-7-147-21z" fill="#79b93f"/><path d="M275 405V300l87-78 91 78v105" fill="#fff" stroke="#063d2e" stroke-width="18" stroke-linejoin="round"/><path d="M350 405v-66h52v66M318 318h36v36h-36m60-36h36v36h-36" fill="none" stroke="#063d2e" stroke-width="14"/><path d="M205 405V230" stroke="#063d2e" stroke-width="20" stroke-linecap="round"/><path d="M205 260c-48-22-74-57-81-105 42 9 72 36 91 81m-9-19c14-46 41-79 81-99 6 46-12 85-55 119m-26 5c-41-2-75-19-104-49 41-15 78-7 111 24m-4 46c27-37 61-56 104-58-12 43-39 72-82 87" fill="#55a928" stroke="#176d35" stroke-width="8" stroke-linejoin="round"/><path d="M455 488c59-63 112-78 162-45-19 69-76 107-172 112 6-25 9-47 10-67z" fill="#4ca526"/><path d="M468 532c47-38 86-58 118-62" fill="none" stroke="#fff" stroke-width="10" stroke-linecap="round"/><text x="360" y="625" text-anchor="middle" font-family="Arial,Helvetica,sans-serif" font-weight="900" font-size="58" fill="#063d2e" letter-spacing="2">GARDEN CITY</text><text x="360" y="673" text-anchor="middle" font-family="Arial,Helvetica,sans-serif" font-weight="700" font-size="28" fill="#4a962b" letter-spacing="8">PROPERTY CARE</text></svg>